<svg id="visual" viewBox="0 0 960 540" width="960" height="540" xmlns="http://www.w3.org/2000/svg" xmlns:xlink="http://www.w3.org/1999/xlink" version="1.1"><rect x="0" y="0" width="960" height="540" fill="#001220"></rect><path d="M0 84L16 79C32 74 64 64 96 61.5C128 59 160 64 192 65C224 66 256 63 288 63C320 63 352 66 384 68.3C416 70.7 448 72.3 480 74.7C512 77 544 80 576 78C608 76 640 69 672 68.3C704 67.7 736 73.3 768 76.8C800 80.3 832 81.7 864 81.8C896 82 928 81 944 80.5L960 80L960 0L944 0C928 0 896 0 864 0C832 0 800 0 768 0C736 0 704 0 672 0C640 0 608 0 576 0C544 0 512 0 480 0C448 0 416 0 384 0C352 0 320 0 288 0C256 0 224 0 192 0C160 0 128 0 96 0C64 0 32 0 16 0L0 0Z" fill="#fa7268"></path><path d="M0 66L16 65.5C32 65 64 64 96 63.7C128 63.3 160 63.7 192 60.7C224 57.7 256 51.3 288 51.8C320 52.3 352 59.7 384 58.7C416 57.7 448 48.3 480 45.2C512 42 544 45 576 45.2C608 45.3 640 42.7 672 41.8C704 41 736 42 768 42.2C800 42.3 832 41.7 864 42.8C896 44 928 47 944 48.5L960 50L960 0L944 0C928 0 896 0 864 0C832 0 800 0 768 0C736 0 704 0 672 0C640 0 608 0 576 0C544 0 512 0 480 0C448 0 416 0 384 0C352 0 320 0 288 0C256 0 224 0 192 0C160 0 128 0 96 0C64 0 32 0 16 0L0 0Z" fill="#eb5967"></path><path d="M0 48L16 46.8C32 45.7 64 43.3 96 43.5C128 43.7 160 46.3 192 44.7C224 43 256 37 288 33.3C320 29.7 352 28.3 384 27.3C416 26.3 448 25.7 480 25.2C512 24.7 544 24.3 576 27.2C608 30 640 36 672 40C704 44 736 46 768 43C800 40 832 32 864 30.2C896 28.3 928 32.7 944 34.8L960 37L960 0L944 0C928 0 896 0 864 0C832 0 800 0 768 0C736 0 704 0 672 0C640 0 608 0 576 0C544 0 512 0 480 0C448 0 416 0 384 0C352 0 320 0 288 0C256 0 224 0 192 0C160 0 128 0 96 0C64 0 32 0 16 0L0 0Z" fill="#da3f67"></path><path d="M0 24L16 21.8C32 19.7 64 15.3 96 15.2C128 15 160 19 192 22.3C224 25.7 256 28.3 288 29.3C320 30.3 352 29.7 384 27C416 24.3 448 19.7 480 19.3C512 19 544 23 576 23.7C608 24.3 640 21.7 672 21.7C704 21.7 736 24.3 768 23.7C800 23 832 19 864 17.5C896 16 928 17 944 17.5L960 18L960 0L944 0C928 0 896 0 864 0C832 0 800 0 768 0C736 0 704 0 672 0C640 0 608 0 576 0C544 0 512 0 480 0C448 0 416 0 384 0C352 0 320 0 288 0C256 0 224 0 192 0C160 0 128 0 96 0C64 0 32 0 16 0L0 0Z" fill="#c62368"></path></svg>