<svg id="visual" viewBox="0 0 675 900" width="675" height="900" xmlns="http://www.w3.org/2000/svg" xmlns:xlink="http://www.w3.org/1999/xlink" version="1.1"><rect x="0" y="0" width="675" height="900" fill="#001220"></rect><path d="M0 140L11.3 131.7C22.7 123.3 45.3 106.7 67.8 102.7C90.3 98.7 112.7 107.3 135.2 109.2C157.7 111 180.3 106 202.8 106C225.3 106 247.7 111 270.2 114.8C292.7 118.7 315.3 121.3 337.8 125.2C360.3 129 382.7 134 405 130.7C427.3 127.3 449.7 115.7 472.2 114.7C494.7 113.7 517.3 123.3 540 129.2C562.7 135 585.3 137 607.8 137C630.3 137 652.7 135 663.8 134L675 133L675 0L663.8 0C652.7 0 630.3 0 607.8 0C585.3 0 562.7 0 540 0C517.3 0 494.7 0 472.2 0C449.7 0 427.3 0 405 0C382.7 0 360.3 0 337.8 0C315.3 0 292.7 0 270.2 0C247.7 0 225.3 0 202.8 0C180.3 0 157.7 0 135.2 0C112.7 0 90.3 0 67.8 0C45.3 0 22.7 0 11.3 0L0 0Z" fill="#fa7268"></path><path d="M0 111L11.3 110.2C22.7 109.3 45.3 107.7 67.8 107C90.3 106.3 112.7 106.7 135.2 101.7C157.7 96.7 180.3 86.3 202.8 87.3C225.3 88.3 247.7 100.7 270.2 98.8C292.7 97 315.3 81 337.8 75.7C360.3 70.3 382.7 75.7 405 76.2C427.3 76.7 449.7 72.3 472.2 70.8C494.7 69.3 517.3 70.7 540 70.8C562.7 71 585.3 70 607.8 72.2C630.3 74.3 652.7 79.7 663.8 82.3L675 85L675 0L663.8 0C652.7 0 630.3 0 607.8 0C585.3 0 562.7 0 540 0C517.3 0 494.7 0 472.2 0C449.7 0 427.3 0 405 0C382.7 0 360.3 0 337.8 0C315.3 0 292.7 0 270.2 0C247.7 0 225.3 0 202.8 0C180.3 0 157.7 0 135.2 0C112.7 0 90.3 0 67.8 0C45.3 0 22.7 0 11.3 0L0 0Z" fill="#eb5967"></path><path d="M0 81L11.3 79C22.7 77 45.3 73 67.8 73.2C90.3 73.3 112.7 77.7 135.2 74.8C157.7 72 180.3 62 202.8 55.8C225.3 49.7 247.7 47.3 270.2 45.8C292.7 44.3 315.3 43.7 337.8 42.8C360.3 42 382.7 41 405 45.5C427.3 50 449.7 60 472.2 66.8C494.7 73.7 517.3 77.3 540 72.5C562.7 67.7 585.3 54.3 607.8 51.2C630.3 48 652.7 55 663.8 58.5L675 62L675 0L663.8 0C652.7 0 630.3 0 607.8 0C585.3 0 562.7 0 540 0C517.3 0 494.7 0 472.2 0C449.7 0 427.3 0 405 0C382.7 0 360.3 0 337.8 0C315.3 0 292.7 0 270.2 0C247.7 0 225.3 0 202.8 0C180.3 0 157.7 0 135.2 0C112.7 0 90.3 0 67.8 0C45.3 0 22.7 0 11.3 0L0 0Z" fill="#da3f67"></path><path d="M0 41L11.3 37.3C22.7 33.7 45.3 26.3 67.8 26.2C90.3 26 112.7 33 135.2 38.7C157.7 44.3 180.3 48.7 202.8 50C225.3 51.3 247.7 49.7 270.2 45.2C292.7 40.7 315.3 33.3 337.8 33C360.3 32.7 382.7 39.3 405 40.3C427.3 41.3 449.7 36.7 472.2 36.5C494.7 36.3 517.3 40.7 540 39.5C562.7 38.3 585.3 31.7 607.8 29.2C630.3 26.7 652.7 28.3 663.8 29.2L675 30L675 0L663.8 0C652.7 0 630.3 0 607.8 0C585.3 0 562.7 0 540 0C517.3 0 494.7 0 472.2 0C449.7 0 427.3 0 405 0C382.7 0 360.3 0 337.8 0C315.3 0 292.7 0 270.2 0C247.7 0 225.3 0 202.8 0C180.3 0 157.7 0 135.2 0C112.7 0 90.3 0 67.8 0C45.3 0 22.7 0 11.3 0L0 0Z" fill="#c62368"></path></svg>